<mxfile host="drawio-plugin" modified="2023-09-23T08:52:21.441Z" agent="5.0 (Windows NT 10.0; Win64; x64) AppleWebKit/537.36 (KHTML, like Gecko) Chrome/111.0.0.0 Safari/537.36" etag="H1RTndlugQ6LZcN5MELz" version="20.5.3" type="embed"><diagram id="23iRSUPoRavnBvh4doch" name="Page-1"><mxGraphModel dx="1952" dy="1109" grid="1" gridSize="10" guides="1" tooltips="1" connect="1" arrows="1" fold="1" page="1" pageScale="1" pageWidth="827" pageHeight="1169" math="0" shadow="0"><root><mxCell id="0"/><mxCell id="1" parent="0"/><mxCell id="5" style="edgeStyle=orthogonalEdgeStyle;rounded=0;orthogonalLoop=1;jettySize=auto;html=1;" edge="1" parent="1" source="2"><mxGeometry relative="1" as="geometry"><mxPoint x="380" y="380" as="targetPoint"/></mxGeometry></mxCell><mxCell id="2" value="Home" style="rounded=1;whiteSpace=wrap;html=1;" vertex="1" parent="1"><mxGeometry x="320" y="190" width="120" height="60" as="geometry"/></mxCell><mxCell id="3" value="" style="endArrow=none;html=1;rounded=0;" edge="1" parent="1"><mxGeometry width="50" height="50" relative="1" as="geometry"><mxPoint x="40" y="380" as="sourcePoint"/><mxPoint x="1130" y="380" as="targetPoint"/></mxGeometry></mxCell><mxCell id="10" style="edgeStyle=orthogonalEdgeStyle;rounded=0;orthogonalLoop=1;jettySize=auto;html=1;startArrow=classic;startFill=1;endArrow=none;endFill=0;" edge="1" parent="1" source="6"><mxGeometry relative="1" as="geometry"><mxPoint x="50" y="380" as="targetPoint"/></mxGeometry></mxCell><mxCell id="16" style="edgeStyle=orthogonalEdgeStyle;rounded=0;orthogonalLoop=1;jettySize=auto;html=1;entryX=0;entryY=0.5;entryDx=0;entryDy=0;" edge="1" parent="1" source="6" target="15"><mxGeometry relative="1" as="geometry"/></mxCell><mxCell id="18" style="edgeStyle=orthogonalEdgeStyle;rounded=0;orthogonalLoop=1;jettySize=auto;html=1;entryX=0;entryY=0.5;entryDx=0;entryDy=0;" edge="1" parent="1" source="6" target="17"><mxGeometry relative="1" as="geometry"/></mxCell><mxCell id="6" value="Market Place" style="rounded=1;whiteSpace=wrap;html=1;" vertex="1" parent="1"><mxGeometry x="-10" y="470" width="120" height="60" as="geometry"/></mxCell><mxCell id="12" style="edgeStyle=orthogonalEdgeStyle;rounded=0;orthogonalLoop=1;jettySize=auto;html=1;startArrow=classic;startFill=1;endArrow=none;endFill=0;" edge="1" parent="1" source="7"><mxGeometry relative="1" as="geometry"><mxPoint x="280" y="380" as="targetPoint"/></mxGeometry></mxCell><mxCell id="31" style="edgeStyle=orthogonalEdgeStyle;rounded=0;orthogonalLoop=1;jettySize=auto;html=1;entryX=0;entryY=0.5;entryDx=0;entryDy=0;" edge="1" parent="1" source="7" target="29"><mxGeometry relative="1" as="geometry"/></mxCell><mxCell id="32" style="edgeStyle=orthogonalEdgeStyle;rounded=0;orthogonalLoop=1;jettySize=auto;html=1;entryX=0;entryY=0.5;entryDx=0;entryDy=0;" edge="1" parent="1" source="7" target="30"><mxGeometry relative="1" as="geometry"/></mxCell><mxCell id="34" style="edgeStyle=orthogonalEdgeStyle;rounded=0;orthogonalLoop=1;jettySize=auto;html=1;entryX=0;entryY=0.5;entryDx=0;entryDy=0;" edge="1" parent="1" source="7" target="33"><mxGeometry relative="1" as="geometry"/></mxCell><mxCell id="7" value="Send Money" style="rounded=1;whiteSpace=wrap;html=1;" vertex="1" parent="1"><mxGeometry x="220" y="470" width="120" height="60" as="geometry"/></mxCell><mxCell id="14" style="edgeStyle=orthogonalEdgeStyle;rounded=0;orthogonalLoop=1;jettySize=auto;html=1;startArrow=none;startFill=1;endArrow=none;endFill=0;" edge="1" parent="1" source="38"><mxGeometry relative="1" as="geometry"><mxPoint x="530" y="380" as="targetPoint"/></mxGeometry></mxCell><mxCell id="22" style="edgeStyle=orthogonalEdgeStyle;rounded=0;orthogonalLoop=1;jettySize=auto;html=1;entryX=0;entryY=0.5;entryDx=0;entryDy=0;" edge="1" parent="1" source="8" target="21"><mxGeometry relative="1" as="geometry"/></mxCell><mxCell id="24" style="edgeStyle=orthogonalEdgeStyle;rounded=0;orthogonalLoop=1;jettySize=auto;html=1;entryX=0;entryY=0.5;entryDx=0;entryDy=0;" edge="1" parent="1" source="8" target="23"><mxGeometry relative="1" as="geometry"/></mxCell><mxCell id="26" style="edgeStyle=orthogonalEdgeStyle;rounded=0;orthogonalLoop=1;jettySize=auto;html=1;entryX=0;entryY=0.5;entryDx=0;entryDy=0;" edge="1" parent="1" source="8" target="25"><mxGeometry relative="1" as="geometry"/></mxCell><mxCell id="50" style="edgeStyle=orthogonalEdgeStyle;rounded=0;orthogonalLoop=1;jettySize=auto;html=1;startArrow=classic;startFill=1;endArrow=none;endFill=0;" edge="1" parent="1" source="8"><mxGeometry relative="1" as="geometry"><mxPoint x="530" y="560" as="targetPoint"/></mxGeometry></mxCell><mxCell id="8" value="Trolley" style="rounded=1;whiteSpace=wrap;html=1;" vertex="1" parent="1"><mxGeometry x="560" y="720" width="120" height="60" as="geometry"/></mxCell><mxCell id="15" value="List Items" style="rounded=1;whiteSpace=wrap;html=1;" vertex="1" parent="1"><mxGeometry x="80" y="600" width="120" height="40" as="geometry"/></mxCell><mxCell id="17" value="Add to trolley" style="rounded=1;whiteSpace=wrap;html=1;" vertex="1" parent="1"><mxGeometry x="80" y="680" width="120" height="40" as="geometry"/></mxCell><mxCell id="21" value="Remove" style="rounded=1;whiteSpace=wrap;html=1;" vertex="1" parent="1"><mxGeometry x="650" y="850" width="120" height="40" as="geometry"/></mxCell><mxCell id="23" value="List Items" style="rounded=1;whiteSpace=wrap;html=1;" vertex="1" parent="1"><mxGeometry x="650" y="930" width="120" height="40" as="geometry"/></mxCell><mxCell id="25" value="Checkout" style="rounded=1;whiteSpace=wrap;html=1;" vertex="1" parent="1"><mxGeometry x="650" y="1010" width="120" height="40" as="geometry"/></mxCell><mxCell id="36" style="edgeStyle=orthogonalEdgeStyle;rounded=0;orthogonalLoop=1;jettySize=auto;html=1;startArrow=classic;startFill=1;endArrow=none;endFill=0;" edge="1" parent="1" source="27"><mxGeometry relative="1" as="geometry"><mxPoint x="800" y="380" as="targetPoint"/></mxGeometry></mxCell><mxCell id="58" style="edgeStyle=orthogonalEdgeStyle;rounded=0;orthogonalLoop=1;jettySize=auto;html=1;entryX=0;entryY=0.5;entryDx=0;entryDy=0;startArrow=none;startFill=0;endArrow=classic;endFill=1;" edge="1" parent="1" source="27" target="57"><mxGeometry relative="1" as="geometry"/></mxCell><mxCell id="60" style="edgeStyle=orthogonalEdgeStyle;rounded=0;orthogonalLoop=1;jettySize=auto;html=1;entryX=0;entryY=0.5;entryDx=0;entryDy=0;startArrow=none;startFill=0;endArrow=classic;endFill=1;" edge="1" parent="1" source="27" target="59"><mxGeometry relative="1" as="geometry"/></mxCell><mxCell id="27" value="Authentication" style="rounded=1;whiteSpace=wrap;html=1;" vertex="1" parent="1"><mxGeometry x="740" y="470" width="120" height="60" as="geometry"/></mxCell><mxCell id="29" value="List Agents" style="rounded=1;whiteSpace=wrap;html=1;" vertex="1" parent="1"><mxGeometry x="320" y="600" width="120" height="40" as="geometry"/></mxCell><mxCell id="30" value="Calculator" style="rounded=1;whiteSpace=wrap;html=1;" vertex="1" parent="1"><mxGeometry x="320" y="680" width="120" height="40" as="geometry"/></mxCell><mxCell id="33" value="Exchange" style="rounded=1;whiteSpace=wrap;html=1;" vertex="1" parent="1"><mxGeometry x="320" y="760" width="120" height="40" as="geometry"/></mxCell><mxCell id="38" value="User" style="rounded=1;whiteSpace=wrap;html=1;" vertex="1" parent="1"><mxGeometry x="470" y="470" width="120" height="60" as="geometry"/></mxCell><mxCell id="53" style="edgeStyle=orthogonalEdgeStyle;rounded=0;orthogonalLoop=1;jettySize=auto;html=1;startArrow=classic;startFill=1;endArrow=none;endFill=0;" edge="1" parent="1" source="40"><mxGeometry relative="1" as="geometry"><mxPoint x="530" y="560" as="targetPoint"/><Array as="points"><mxPoint x="530" y="580"/></Array></mxGeometry></mxCell><mxCell id="40" value="Details" style="rounded=1;whiteSpace=wrap;html=1;" vertex="1" parent="1"><mxGeometry x="560" y="560" width="120" height="40" as="geometry"/></mxCell><mxCell id="51" style="edgeStyle=orthogonalEdgeStyle;rounded=0;orthogonalLoop=1;jettySize=auto;html=1;entryX=0.5;entryY=1;entryDx=0;entryDy=0;startArrow=classic;startFill=1;endArrow=none;endFill=0;" edge="1" parent="1" source="41" target="38"><mxGeometry relative="1" as="geometry"><Array as="points"><mxPoint x="530" y="660"/></Array></mxGeometry></mxCell><mxCell id="41" value="Update" style="rounded=1;whiteSpace=wrap;html=1;" vertex="1" parent="1"><mxGeometry x="560" y="640" width="120" height="40" as="geometry"/></mxCell><mxCell id="48" style="edgeStyle=orthogonalEdgeStyle;rounded=0;orthogonalLoop=1;jettySize=auto;html=1;entryX=0.5;entryY=1;entryDx=0;entryDy=0;startArrow=classic;startFill=1;endArrow=none;endFill=0;" edge="1" parent="1" source="45" target="38"><mxGeometry relative="1" as="geometry"><Array as="points"><mxPoint x="530" y="1100"/></Array></mxGeometry></mxCell><mxCell id="56" style="edgeStyle=orthogonalEdgeStyle;rounded=0;orthogonalLoop=1;jettySize=auto;html=1;entryX=0;entryY=0.5;entryDx=0;entryDy=0;startArrow=none;startFill=0;endArrow=classic;endFill=1;" edge="1" parent="1" source="45" target="55"><mxGeometry relative="1" as="geometry"/></mxCell><mxCell id="45" value="Exchanges" style="rounded=1;whiteSpace=wrap;html=1;" vertex="1" parent="1"><mxGeometry x="560" y="1070" width="120" height="60" as="geometry"/></mxCell><mxCell id="55" value="History" style="rounded=1;whiteSpace=wrap;html=1;" vertex="1" parent="1"><mxGeometry x="650" y="1160" width="120" height="40" as="geometry"/></mxCell><mxCell id="57" value="Login" style="rounded=1;whiteSpace=wrap;html=1;" vertex="1" parent="1"><mxGeometry x="840" y="560" width="120" height="40" as="geometry"/></mxCell><mxCell id="59" value="Sign In" style="rounded=1;whiteSpace=wrap;html=1;" vertex="1" parent="1"><mxGeometry x="840" y="640" width="120" height="40" as="geometry"/></mxCell><mxCell id="64" style="edgeStyle=orthogonalEdgeStyle;rounded=0;orthogonalLoop=1;jettySize=auto;html=1;startArrow=classic;startFill=1;endArrow=none;endFill=0;" edge="1" parent="1" source="61"><mxGeometry relative="1" as="geometry"><mxPoint x="1100" y="380" as="targetPoint"/></mxGeometry></mxCell><mxCell id="80" style="edgeStyle=orthogonalEdgeStyle;rounded=0;orthogonalLoop=1;jettySize=auto;html=1;entryX=0;entryY=0.5;entryDx=0;entryDy=0;startArrow=none;startFill=0;endArrow=classic;endFill=1;" edge="1" parent="1" source="61" target="79"><mxGeometry relative="1" as="geometry"/></mxCell><mxCell id="61" value="Management" style="rounded=1;whiteSpace=wrap;html=1;" vertex="1" parent="1"><mxGeometry x="1040" y="470" width="120" height="60" as="geometry"/></mxCell><mxCell id="76" style="edgeStyle=orthogonalEdgeStyle;rounded=0;orthogonalLoop=1;jettySize=auto;html=1;entryX=0.5;entryY=1;entryDx=0;entryDy=0;startArrow=classic;startFill=1;endArrow=none;endFill=0;" edge="1" parent="1" source="62" target="61"><mxGeometry relative="1" as="geometry"><Array as="points"><mxPoint x="1100" y="600"/></Array></mxGeometry></mxCell><mxCell id="93" style="edgeStyle=orthogonalEdgeStyle;rounded=0;orthogonalLoop=1;jettySize=auto;html=1;entryX=0;entryY=0.5;entryDx=0;entryDy=0;startArrow=none;startFill=0;endArrow=classic;endFill=1;" edge="1" parent="1" source="62" target="92"><mxGeometry relative="1" as="geometry"/></mxCell><mxCell id="62" value="Product" style="rounded=1;whiteSpace=wrap;html=1;" vertex="1" parent="1"><mxGeometry x="1160" y="580" width="120" height="60" as="geometry"/></mxCell><mxCell id="71" style="edgeStyle=orthogonalEdgeStyle;rounded=0;orthogonalLoop=1;jettySize=auto;html=1;entryX=0.5;entryY=1;entryDx=0;entryDy=0;startArrow=classic;startFill=1;endArrow=none;endFill=0;" edge="1" parent="1" source="66" target="62"><mxGeometry relative="1" as="geometry"><Array as="points"><mxPoint x="1220" y="700"/></Array></mxGeometry></mxCell><mxCell id="66" value="List" style="rounded=1;whiteSpace=wrap;html=1;" vertex="1" parent="1"><mxGeometry x="1241" y="680" width="120" height="40" as="geometry"/></mxCell><mxCell id="73" style="edgeStyle=orthogonalEdgeStyle;rounded=0;orthogonalLoop=1;jettySize=auto;html=1;startArrow=classic;startFill=1;endArrow=none;endFill=0;" edge="1" parent="1" source="67"><mxGeometry relative="1" as="geometry"><mxPoint x="1220" y="660" as="targetPoint"/></mxGeometry></mxCell><mxCell id="67" value="Add" style="rounded=1;whiteSpace=wrap;html=1;" vertex="1" parent="1"><mxGeometry x="1241" y="760" width="120" height="40" as="geometry"/></mxCell><mxCell id="74" style="edgeStyle=orthogonalEdgeStyle;rounded=0;orthogonalLoop=1;jettySize=auto;html=1;entryX=0.5;entryY=1;entryDx=0;entryDy=0;startArrow=classic;startFill=1;endArrow=none;endFill=0;" edge="1" parent="1" source="68" target="62"><mxGeometry relative="1" as="geometry"><Array as="points"><mxPoint x="1220" y="860"/></Array></mxGeometry></mxCell><mxCell id="68" value="Edit" style="rounded=1;whiteSpace=wrap;html=1;" vertex="1" parent="1"><mxGeometry x="1241" y="840" width="120" height="40" as="geometry"/></mxCell><mxCell id="75" style="edgeStyle=orthogonalEdgeStyle;rounded=0;orthogonalLoop=1;jettySize=auto;html=1;entryX=0.5;entryY=1;entryDx=0;entryDy=0;startArrow=classic;startFill=1;endArrow=none;endFill=0;" edge="1" parent="1" source="69" target="62"><mxGeometry relative="1" as="geometry"><Array as="points"><mxPoint x="1220" y="940"/></Array></mxGeometry></mxCell><mxCell id="69" value="Remove" style="rounded=1;whiteSpace=wrap;html=1;" vertex="1" parent="1"><mxGeometry x="1241" y="920" width="120" height="40" as="geometry"/></mxCell><mxCell id="88" style="edgeStyle=orthogonalEdgeStyle;rounded=0;orthogonalLoop=1;jettySize=auto;html=1;entryX=0;entryY=0.5;entryDx=0;entryDy=0;startArrow=none;startFill=0;endArrow=classic;endFill=1;" edge="1" parent="1" source="79" target="82"><mxGeometry relative="1" as="geometry"/></mxCell><mxCell id="89" style="edgeStyle=orthogonalEdgeStyle;rounded=0;orthogonalLoop=1;jettySize=auto;html=1;entryX=0;entryY=0.5;entryDx=0;entryDy=0;startArrow=none;startFill=0;endArrow=classic;endFill=1;" edge="1" parent="1" source="79" target="83"><mxGeometry relative="1" as="geometry"/></mxCell><mxCell id="90" style="edgeStyle=orthogonalEdgeStyle;rounded=0;orthogonalLoop=1;jettySize=auto;html=1;entryX=0;entryY=0.5;entryDx=0;entryDy=0;startArrow=none;startFill=0;endArrow=classic;endFill=1;" edge="1" parent="1" source="79" target="84"><mxGeometry relative="1" as="geometry"/></mxCell><mxCell id="91" style="edgeStyle=orthogonalEdgeStyle;rounded=0;orthogonalLoop=1;jettySize=auto;html=1;entryX=0;entryY=0.5;entryDx=0;entryDy=0;startArrow=none;startFill=0;endArrow=classic;endFill=1;" edge="1" parent="1" source="79" target="85"><mxGeometry relative="1" as="geometry"/></mxCell><mxCell id="79" value="Customer" style="rounded=1;whiteSpace=wrap;html=1;" vertex="1" parent="1"><mxGeometry x="1160" y="1070" width="120" height="60" as="geometry"/></mxCell><mxCell id="82" value="List" style="rounded=1;whiteSpace=wrap;html=1;" vertex="1" parent="1"><mxGeometry x="1241" y="1160" width="120" height="40" as="geometry"/></mxCell><mxCell id="83" value="Detail" style="rounded=1;whiteSpace=wrap;html=1;" vertex="1" parent="1"><mxGeometry x="1241" y="1240" width="120" height="40" as="geometry"/></mxCell><mxCell id="84" value="Edit" style="rounded=1;whiteSpace=wrap;html=1;" vertex="1" parent="1"><mxGeometry x="1241" y="1320" width="120" height="40" as="geometry"/></mxCell><mxCell id="85" value="Remove" style="rounded=1;whiteSpace=wrap;html=1;" vertex="1" parent="1"><mxGeometry x="1241" y="1400" width="120" height="40" as="geometry"/></mxCell><mxCell id="92" value="Detail" style="rounded=1;whiteSpace=wrap;html=1;" vertex="1" parent="1"><mxGeometry x="1241" y="1000" width="120" height="40" as="geometry"/></mxCell></root></mxGraphModel></diagram></mxfile>